<?xml version="1.0" encoding="UTF-8"?><svg id="Layer_1" xmlns="http://www.w3.org/2000/svg" viewBox="0 0 3600 3600"><defs><style>.cls-1{fill:#099;stroke:#099;stroke-miterlimit:10;stroke-width:12px;}.cls-2{fill:#fa5c00;}.cls-2,.cls-3{stroke-width:0px;}.cls-3{fill:#53565a;}</style></defs><path class="cls-2" d="m2190.77,1462.91c-9.43-16.94-24.7-30.3-43.93-36.2-30.26-9.29-61.67.44-81.42,23.51l-10.84,12.7-11.91,13.95-25.95,30.25-90.76,105.8c-9.43,10.96-22.52,17.09-37.02,17.09s-27.58-6.13-37.02-17.09l-29.59-34.54-61.09-71.26-37.89-44.19-10.89-12.7c-14.74-17.21-35.96-27-58.36-27-8.13,0-16.15,1.3-23.7,3.77-10.84,3.3-20.87,9.08-29.35,16.98-15.79,14.62-24.52,34.78-24.52,56.59v341.27c0,.27-.02.55-.02.82-.48,50.45-44.79,90.54-96.64,83.94-40.02-5.1-69.75-38.88-73.79-78.47-.31-3.04-.49-6.11-.49-9.21v-750.15h.11c1.13-.51,2.23-1.07,3.32-1.66,10.72-5.78,19.31-15.17,23.91-26.51,2.71-6.25,4.13-13.09,4.13-20.28,0-1.76-.11-3.49-.28-5.21-.67-6.68-2.61-13-5.61-18.72-7.31-14.62-21.22-25.35-37.84-28.29-3.06-.59-6.13-.83-9.31-.83-4.36,0-8.61.47-12.61,1.53-4.6,1.06-8.96,2.83-12.97,4.95-7.1,3.92-13.14,9.44-17.78,16.05-2.06,2.94-3.88,6.08-5.33,9.42-2.83,6.48-4.36,13.56-4.36,21.1,0,20.04,11.08,37.49,27.47,46.57.11,0,.24,0,.24.12-.12,2.71-.24,5.42-.24,8.13v746.71c0,74.06,60.81,134.01,135.2,132.6,72.98-1.38,130.05-64.03,130.05-137.03v-336.85c0-18.39,14.97-30.18,30.42-30.18,8.01,0,16.27,3.18,22.52,10.61l22.43,26.12,58.56,68.19,8.73,10.26,49.75,58.12c19.22,22.28,45.98,33.48,72.86,33.48s53.64-11.2,72.86-33.48l116.59-136.16.35-.4,22.52-26.12c6.25-7.43,14.51-10.61,22.52-10.61,15.44,0,30.42,11.79,30.42,30.18v550.52c0,13.07-7.44,23.78-20.55,29.33-114.91,55.19-245.47,82.82-383.06,74.23-383.04-23.9-693.77-330.89-721.9-713.64-9.65-131.29,13.66-256.39,62.6-367.75,25.64-1.99,45.74-23.31,45.74-49.5,0-9.61-2.76-18.56-7.51-26.18-7.95-12.93-21.54-21.77-37.45-23.31-1.55-.11-3.2-.22-4.75-.22-27.51,0-49.72,22.21-49.72,49.72,0,12.71,4.75,24.31,12.7,33.03-48.66,111.09-73.13,235.16-67.02,365.23,19.51,415.43,354.01,753.45,769.23,777.02,143.83,8.16,280.28-21.1,400.51-78.92,9.74-4.68,19.37-9.56,28.89-14.61,12.22-12.53,19.45-29.73,19.45-48.04v-553.68c0-14.53-3.78-28.63-10.59-40.87Z"/><path class="cls-1" d="m2617.64,1382.09c0-263.94-125.73-499.04-320.4-648.64-.14-.11-.29-.22-.43-.33-1.75-1.35-3.59-2.43-5.46-3.27-136.88-103.29-307.13-164.6-491.42-164.6-263.94,0-499.04,125.73-648.64,320.4-.11.14-.22.29-.33.43-13.73,17.87-.66,43.76,21.88,43.76h1061.71c47.64,0,85.77,41.72,79.54,90.56-5.15,40.41-41.51,69.63-82.25,69.63h-432.26c-61.14,0-110.39,51.83-106.14,113.74,3.88,56.43,53.4,98.94,109.97,98.94h306.95c26.29,0,49.72,12.82,64.3,32.59-9.95,9.06-16.02,21.99-16.02,36.46,0,18.45,10.06,34.58,24.97,43.09,7.29,4.31,15.69,6.63,24.75,6.63,7.74,0,15.14-1.77,21.55-4.86,16.68-8.07,28.17-25.08,28.17-44.86,0-23.75-16.57-43.53-38.78-48.5-5.64-10.39-12.82-20-21.1-28.28-22.43-22.54-53.58-36.46-87.84-36.46h-310.78c-36.35,0-65.4-31.16-61.92-68.23,3.04-32.31,32-56.06,64.44-56.06h432.44c69.52,0,125.7-56.99,124.38-126.7-1.3-68.4-60.01-121.88-128.42-121.88h-1001.15c-8.37,0-12.96-9.92-7.4-16.18,141.76-159.47,348.33-260.03,577.97-260.03,180.17,0,346.14,61.93,477.76,165.6l19.18,15.61c23.52,19.77,45.85,40.91,66.87,63.3,41.01,44.23,89.47,106.19,129.53,186.35,43.55,87.78,70.91,184.96,78.15,287.6h.31c1.46,21.35,1.8,39.67,1.71,54.19-1.61,274.54-158.1,471.33-214.53,533.44-3.86-.97-7.9-1.49-12.07-1.49-27.22,0-49.29,22.07-49.29,49.29s22.07,49.29,49.29,49.29,49.29-22.07,49.29-49.29c0-6.54-1.28-12.77-3.59-18.47,139.42-146.69,225.09-344.91,225.09-562.77Z"/><path class="cls-3" d="m399.8,3034.75h-105.96v-550.02h165.23l154.01,419.81h2.69l148.62-419.81h167.03v550.02h-105.96v-260.87l5.84-178.7h-2.69l-166.13,439.57h-98.78l-168.82-440.47h-2.69l7.63,179.6v260.87Z"/><path class="cls-3" d="m1131.44,3014.77c-34.28-17.81-60.92-43.03-79.92-75.66-19.01-32.62-28.51-70.34-28.51-113.15s9.8-81.04,29.41-113.82c19.6-32.78,46.54-58.15,80.82-76.1,34.27-17.96,72.96-26.94,116.07-26.94s80.67,8.98,114.5,26.94c33.82,17.96,60.39,43.33,79.7,76.1,19.31,32.78,28.96,70.72,28.96,113.82s-9.36,80.53-28.06,113.15c-18.71,32.63-44.98,57.85-78.8,75.66-33.83,17.81-72.59,26.72-116.29,26.72s-83.59-8.9-117.86-26.72Zm176.68-78.35c16.76-9.88,29.7-24.25,38.84-43.1,9.13-18.86,13.69-41.31,13.69-67.35s-4.57-48.94-13.69-67.8c-9.13-18.86-22.08-33.3-38.84-43.33-16.77-10.03-36.37-15.04-58.82-15.04s-42.21,5.02-59.27,15.04c-17.06,10.03-30.38,24.55-39.96,43.55-9.58,19.01-14.37,41.53-14.37,67.57s4.71,48.49,14.14,67.35,22.67,33.23,39.74,43.1c17.06,9.88,36.97,14.82,59.72,14.82s42.05-4.94,58.82-14.82Z"/><path class="cls-3" d="m1669.12,3034.75h-110.45v-589.53h110.45v589.53Z"/><path class="cls-3" d="m1921,3034.75h-114.49v-550.02h349.77v92.04h-235.27v144.13h189.03v91.59h-189.03v222.25Z"/><path class="cls-3" d="m2348,3034.75h-110.45v-589.53h110.45v589.53Z"/><path class="cls-3" d="m2527.6,3021.96c-22.75-13.02-40.41-31.8-52.98-56.35-12.57-24.54-18.86-53.43-18.86-86.66v-260.42h110v243.81c0,30.53,6.13,53.28,18.41,68.25,12.27,14.97,31.58,22.45,57.92,22.45s49.46-9.95,65.78-29.86c16.31-19.9,24.47-47.07,24.47-81.49v-223.15h110.45v416.22h-97.88l-2.69-65.1h-1.8c-12.28,23.05-29.04,40.79-50.29,53.21-21.26,12.42-49.24,18.63-83.96,18.63-29.63,0-55.83-6.51-78.57-19.53Z"/><path class="cls-3" d="m3208.28,2824.62l162.09,210.13h-128.41l-97.88-137.84-96.53,137.84h-133.8l166.13-211.03-159.84-205.19h130.66l96.09,134.7,94.29-134.7h124.82l-157.6,206.09Z"/></svg>
