<svg xmlns="http://www.w3.org/2000/svg" id="Layer_1" viewBox="249.65 1496.37 3100.7 612.22"><defs><style>.cls-1{fill:#099;stroke:#099;}.cls-1,.cls-2{stroke-miterlimit:10;stroke-width:10px;}.cls-2{fill:#fa5c00;stroke:#fa5c00;}.cls-3{fill:#fff;stroke-width:0px;}</style></defs><path class="cls-2" d="m1318.68,1885.09c-2.8-5.02-7.32-8.98-13.02-10.73-8.97-2.75-18.27.13-24.13,6.97l-3.21,3.76-3.53,4.13-7.69,8.96-26.9,31.35c-2.8,3.25-6.67,5.07-10.97,5.07s-8.17-1.82-10.97-5.07l-8.77-10.24-18.1-21.12-11.23-13.1-3.23-3.76c-4.37-5.1-10.66-8-17.29-8-2.41,0-4.79.38-7.02,1.12-3.21.98-6.18,2.69-8.7,5.03-4.68,4.33-7.27,10.31-7.27,16.77v101.13c0,.08,0,.16,0,.24-.14,14.95-13.27,26.83-28.64,24.87-11.86-1.51-20.67-11.52-21.87-23.25-.09-.9-.14-1.81-.14-2.73v-222.3h.03c.34-.15.66-.32.99-.49,3.18-1.71,5.72-4.5,7.09-7.86.8-1.85,1.22-3.88,1.22-6.01,0-.52-.03-1.03-.08-1.54-.2-1.98-.77-3.85-1.66-5.55-2.17-4.33-6.29-7.51-11.21-8.38-.91-.17-1.82-.24-2.76-.24-1.29,0-2.55.14-3.74.45-1.36.31-2.66.84-3.84,1.47-2.1,1.16-3.89,2.8-5.27,4.75-.61.87-1.15,1.8-1.58,2.79-.84,1.92-1.29,4.02-1.29,6.25,0,5.94,3.28,11.11,8.14,13.8.03,0,.07,0,.07.03-.04.8-.07,1.61-.07,2.41v221.28c0,21.95,18.02,39.71,40.06,39.3,21.63-.41,38.54-18.98,38.54-40.61v-99.82c0-5.45,4.44-8.94,9.01-8.94,2.37,0,4.82.94,6.67,3.14l6.65,7.74,17.35,20.21,2.59,3.04,14.74,17.22c5.7,6.6,13.62,9.92,21.59,9.92s15.89-3.32,21.59-9.92l34.55-40.35.1-.12,6.67-7.74c1.85-2.2,4.3-3.14,6.67-3.14,4.58,0,9.01,3.49,9.01,8.94v163.14c0,3.87-2.21,7.05-6.09,8.69-34.05,16.36-72.74,24.54-113.52,22-113.51-7.08-205.59-98.06-213.93-211.48-2.86-38.91,4.05-75.98,18.55-108.98,7.6-.59,13.55-6.91,13.55-14.67,0-2.85-.82-5.5-2.23-7.76-2.36-3.83-6.38-6.45-11.1-6.91-.46-.03-.95-.07-1.41-.07-8.15,0-14.73,6.58-14.73,14.73,0,3.77,1.41,7.2,3.76,9.79-14.42,32.92-21.67,69.69-19.86,108.23,5.78,123.11,104.91,223.28,227.95,230.26,42.62,2.42,83.06-6.25,118.69-23.39,2.89-1.39,5.74-2.83,8.56-4.33,3.62-3.71,5.76-8.81,5.76-14.24v-164.08c0-4.31-1.12-8.48-3.14-12.11Z"/><path class="cls-1" d="m1445.18,1861.14c0-78.22-37.26-147.89-94.95-192.22-.04-.03-.09-.07-.13-.1-.52-.4-1.06-.72-1.62-.97-40.56-30.61-91.01-48.78-145.63-48.78-78.22,0-147.89,37.26-192.22,94.95-.03.04-.07.09-.1.13-4.07,5.3-.2,12.97,6.48,12.97h314.63c14.12,0,25.42,12.36,23.57,26.84-1.53,11.98-12.3,20.64-24.37,20.64h-128.1c-18.12,0-32.71,15.36-31.45,33.7,1.15,16.72,15.83,29.32,32.59,29.32h90.96c7.79,0,14.73,3.8,19.06,9.66-2.95,2.68-4.75,6.52-4.75,10.8,0,5.47,2.98,10.25,7.4,12.77,2.16,1.28,4.65,1.96,7.33,1.96,2.29,0,4.49-.52,6.39-1.44,4.94-2.39,8.35-7.43,8.35-13.29,0-7.04-4.91-12.9-11.49-14.37-1.67-3.08-3.8-5.93-6.25-8.38-6.65-6.68-15.88-10.8-26.03-10.8h-92.1c-10.77,0-19.38-9.23-18.35-20.22.9-9.57,9.48-16.61,19.1-16.61h128.15c20.6,0,37.25-16.89,36.86-37.55-.38-20.27-17.78-36.12-38.05-36.12h-296.68c-2.48,0-3.84-2.94-2.19-4.79,42.01-47.26,103.22-77.06,171.28-77.06,53.39,0,102.58,18.35,141.58,49.08l5.68,4.62c6.97,5.86,13.59,12.12,19.82,18.76,12.15,13.11,26.51,31.47,38.39,55.22,12.9,26.01,21.01,54.81,23.16,85.23h.09c.43,6.33.53,11.76.51,16.06-.48,81.36-46.85,139.68-63.57,158.08-1.14-.29-2.34-.44-3.58-.44-8.07,0-14.61,6.54-14.61,14.61s6.54,14.61,14.61,14.61,14.61-6.54,14.61-14.61c0-1.94-.38-3.78-1.06-5.47,41.32-43.47,66.7-102.21,66.7-166.77Z"/><path class="cls-3" d="m356.45,2090.53h-106.8v-554.34h166.53l155.22,423.11h2.72l149.79-423.11h168.34v554.34h-106.8v-262.92l5.88-180.1h-2.72l-167.43,443.02h-99.56l-170.15-443.93h-2.72l7.69,181.01v262.92Z"/><path class="cls-3" d="m1635.73,2090.53h-111.32v-594.16h111.32v594.16Z"/><path class="cls-3" d="m1889.6,2090.53h-115.39v-554.34h352.52v92.77h-237.12v145.26h190.51v92.31h-190.51v224Z"/><path class="cls-3" d="m2319.95,2090.53h-111.32v-594.16h111.32v594.16Z"/><path class="cls-3" d="m2500.96,2077.63c-22.93-13.12-40.73-32.05-53.4-56.79-12.67-24.73-19.01-53.85-19.01-87.34v-262.46h110.87v245.72c0,30.77,6.18,53.7,18.55,68.78,12.37,15.09,31.83,22.63,58.38,22.63s49.85-10.03,66.29-30.09c16.44-20.06,24.66-47.44,24.66-82.13v-224.9h111.32v419.49h-98.65l-2.72-65.62h-1.81c-12.37,23.23-29.27,41.11-50.68,53.62-21.42,12.51-49.63,18.78-84.62,18.78-29.87,0-56.27-6.56-79.19-19.68Z"/><path class="cls-3" d="m3186.99,1878.75l163.36,211.78h-129.42l-98.65-138.92-97.29,138.92h-134.85l167.43-212.69-161.1-206.8h131.68l96.84,135.76,95.03-135.76h125.8l-158.84,207.71Z"/></svg>
