<?xml version="1.0" encoding="UTF-8"?><svg id="Layer_1" xmlns="http://www.w3.org/2000/svg" viewBox="0 0 3600 3600"><defs><style>.cls-1{fill:#099;stroke:#099;stroke-miterlimit:10;stroke-width:12px;}.cls-2{fill:#fa5c00;stroke-width:0px;}</style></defs><path class="cls-2" d="m2489.31,1941.29c-16.64-29.89-43.57-53.45-77.48-63.86-53.38-16.39-108.78.77-143.62,41.46l-19.12,22.4-21,24.6-45.77,53.35-160.1,186.62c-16.64,19.34-39.72,30.15-65.3,30.15s-48.66-10.81-65.3-30.15l-52.19-60.93-107.77-125.69-66.84-77.95-19.2-22.4c-25.99-30.36-63.43-47.62-102.94-47.62-14.35,0-28.49,2.29-41.8,6.65-19.13,5.82-36.81,16.01-51.78,29.95-27.86,25.79-43.26,61.35-43.26,99.82v601.99c0,.48-.03.96-.04,1.44-.84,89-79.01,159.72-170.47,148.06-70.6-9-123.04-68.59-130.16-138.42-.55-5.36-.86-10.78-.86-16.24v-1323.24h.2c2-.9,3.94-1.9,5.86-2.93,18.9-10.2,34.06-26.76,42.18-46.77,4.78-11.02,7.28-23.08,7.28-35.77,0-3.1-.2-6.16-.5-9.19-1.19-11.78-4.6-22.94-9.9-33.03-12.9-25.79-37.43-44.71-66.75-49.91-5.4-1.04-10.81-1.46-16.43-1.46-7.7,0-15.18.83-22.25,2.7-8.11,1.87-15.81,4.99-22.88,8.73-12.52,6.91-23.18,16.65-31.36,28.3-3.64,5.19-6.84,10.72-9.4,16.61-5,11.44-7.7,23.91-7.7,37.22,0,35.35,19.55,66.13,48.46,82.14.2,0,.42,0,.42.21-.21,4.78-.42,9.57-.42,14.35v1317.18c0,130.65,107.27,236.39,238.48,233.9,128.74-2.44,229.41-112.95,229.41-241.71v-594.19c0-32.44,26.41-53.24,53.65-53.24,14.13,0,28.69,5.62,39.72,18.72l39.57,46.08,103.29,120.29,15.39,18.09,87.75,102.52c33.9,39.3,81.1,59.06,128.52,59.06s94.61-19.76,128.52-59.06l205.66-240.19.61-.71,39.73-46.08c11.03-13.1,25.59-18.72,39.72-18.72,27.24,0,53.65,20.8,53.65,53.24v971.11c0,23.06-13.13,41.94-36.25,51.74-202.7,97.36-433,146.09-675.7,130.95-675.67-42.16-1223.78-583.68-1273.4-1258.85-17.02-231.6,24.1-452.26,110.42-648.71,45.22-3.51,80.69-41.12,80.69-87.31,0-16.95-4.87-32.74-13.26-46.19-14.03-22.8-38-38.39-66.06-41.12-2.73-.19-5.65-.39-8.38-.39-48.53,0-87.7,39.17-87.7,87.7,0,22.41,8.38,42.88,22.41,58.27-85.84,195.96-129,414.82-118.23,644.25,34.41,732.81,624.46,1329.06,1356.9,1370.64,253.71,14.4,494.4-37.22,706.49-139.2,17.18-8.26,34.16-16.86,50.96-25.77,21.55-22.11,34.3-52.45,34.3-84.75v-976.68c0-25.63-6.66-50.5-18.68-72.09Z"/><path class="cls-1" d="m3242.29,1798.73c0-465.59-221.78-880.3-565.17-1144.18-.25-.2-.51-.39-.76-.58-3.09-2.38-6.33-4.28-9.63-5.78-241.46-182.2-541.76-290.35-866.85-290.35-465.58,0-880.3,221.78-1144.18,565.17-.19.25-.39.51-.58.76-24.22,31.53-1.17,77.19,38.59,77.19h1872.82c84.03,0,151.29,73.59,140.3,159.75-9.09,71.29-73.22,122.83-145.08,122.83h-762.49c-107.84,0-194.73,91.43-187.22,200.63,6.85,99.54,94.2,174.53,193.98,174.53h541.46c46.38,0,87.7,22.61,113.43,57.49-17.55,15.98-28.26,38.78-28.26,64.31,0,32.55,17.74,61,44.04,76,12.87,7.6,27.68,11.69,43.66,11.69,13.65,0,26.7-3.12,38.01-8.58,29.42-14.23,49.69-44.24,49.69-79.12,0-41.9-29.23-76.78-68.4-85.56-9.94-18.32-22.61-35.27-37.23-49.89-39.57-39.76-94.52-64.31-154.94-64.31h-548.21c-64.12,0-115.37-54.97-109.22-120.36,5.36-56.99,56.44-98.88,113.68-98.88h762.81c122.63,0,221.73-100.53,219.4-223.5-2.29-120.65-105.85-215-226.52-215H793.39c-14.76,0-22.85-17.51-13.05-28.54,250.06-281.3,614.44-458.68,1019.53-458.68,317.82,0,610.58,109.24,842.75,292.12l33.84,27.53c41.49,34.87,80.88,72.16,117.95,111.65,72.34,78.03,157.82,187.32,228.49,328.71,76.81,154.85,125.09,326.26,137.86,507.32l.55-.02c2.58,37.68,3.17,69.99,3.02,95.6-2.84,484.28-278.89,831.42-378.43,940.98-6.81-1.71-13.94-2.64-21.29-2.64-48.02,0-86.95,38.93-86.95,86.95s38.93,86.95,86.95,86.95,86.95-38.93,86.95-86.95c0-11.53-2.26-22.52-6.34-32.59,245.93-258.75,397.05-608.41,397.05-992.71Z"/></svg>
